<?xml version="1.0" standalone="no"?>
<!DOCTYPE svg PUBLIC "-//W3C//DTD SVG 20010904//EN"
 "http://www.w3.org/TR/2001/REC-SVG-20010904/DTD/svg10.dtd">
<svg version="1.0" xmlns="http://www.w3.org/2000/svg"
 width="479.000000pt" height="320.000000pt" viewBox="0 0 479.000000 320.000000"
 preserveAspectRatio="xMidYMid meet">

<g transform="translate(0.000000,320.000000) scale(0.100000,-0.100000)"
fill="#000000" stroke="none">
<path d="M652 3159 c-183 -24 -338 -120 -441 -275 -74 -110 -96 -189 -96 -344
0 -95 5 -138 19 -180 55 -162 156 -281 296 -348 100 -47 150 -60 285 -71 55
-5 123 -18 152 -29 106 -40 193 -126 233 -232 10 -26 15 -136 20 -435 6 -364
9 -407 28 -477 95 -348 358 -597 712 -674 79 -18 141 -19 830 -19 828 0 790
-3 945 69 68 32 195 120 195 135 0 5 -42 11 -92 14 -157 10 -283 47 -445 132
l-87 45 -626 0 c-690 0 -672 -1 -795 63 -120 64 -234 212 -264 347 -6 26 -11
184 -11 367 0 342 -7 433 -46 553 -36 114 -87 194 -194 300 -81 82 -109 103
-190 142 -114 56 -183 75 -322 87 -112 10 -147 22 -189 68 -44 46 -63 93 -63
153 -1 113 85 202 206 215 35 3 655 5 1378 3 l1315 -3 68 -33 c100 -49 167
-152 167 -255 l0 -29 68 9 c58 7 126 7 282 0 l35 -2 -2 72 c-2 85 -42 212 -94
300 -46 77 -161 191 -236 235 -85 50 -182 83 -282 97 -100 13 -2657 13 -2759
0z"/>
<path d="M3613 2245 c-347 -89 -606 -375 -664 -729 -16 -103 -7 -280 21 -376
146 -513 695 -791 1188 -600 211 82 390 248 487 451 63 133 79 213 78 389 0
139 -3 164 -27 245 -94 312 -333 542 -644 621 -132 33 -308 33 -439 -1z m554
-500 c29 -9 65 -26 80 -39 l28 -24 5 -204 c6 -220 1 -245 -45 -266 -34 -16
-51 -15 -127 4 -81 21 -155 14 -232 -22 -42 -19 -82 -29 -132 -32 l-73 -5 -3
-138 c-3 -159 -12 -176 -86 -186 -36 -5 -45 -2 -72 25 l-30 30 0 401 c0 399 0
400 22 421 27 24 77 26 159 5 60 -16 124 -9 173 17 71 39 227 45 333 13z"/>
</g>
</svg>
