<?xml version="1.0" standalone="no"?>
<!DOCTYPE svg PUBLIC "-//W3C//DTD SVG 20010904//EN"
 "http://www.w3.org/TR/2001/REC-SVG-20010904/DTD/svg10.dtd">
<svg version="1.0" xmlns="http://www.w3.org/2000/svg"
 width="1280.000000pt" height="1058.000000pt" viewBox="0 0 1280.000000 1058.000000"
 preserveAspectRatio="xMidYMid meet">
<metadata>
Created by potrace 1.15, written by Peter Selinger 2001-2017
</metadata>
<g transform="translate(0.000000,1058.000000) scale(0.100000,-0.100000)"
fill="#000000" stroke="none">
<path d="M5610 10569 c-281 -39 -319 -52 -415 -139 -42 -38 -89 -71 -105 -75
-29 -6 -90 -55 -90 -72 1 -4 23 -18 50 -31 55 -26 250 -168 250 -183 0 -20
-30 -5 -169 81 -79 49 -148 87 -153 84 -22 -14 -28 -56 -14 -108 7 -30 11 -76
8 -105 -3 -31 -1 -51 6 -51 17 0 22 -29 10 -55 -6 -14 -17 -25 -24 -25 -13 0
-28 -43 -39 -111 -9 -57 -38 -86 -98 -99 -46 -11 -61 -10 -127 10 -98 29 -128
45 -166 88 l-31 36 -129 -13 c-71 -7 -135 -18 -142 -24 -9 -7 -18 -4 -33 12
-22 24 -35 22 -129 -12 -84 -31 -164 -117 -228 -248 -29 -57 -55 -124 -58
-149 -5 -43 -3 -49 49 -117 30 -39 57 -83 61 -96 3 -14 15 -29 26 -32 21 -7
36 -45 26 -70 -8 -21 -42 -19 -76 6 l-28 22 -54 -33 c-83 -51 -198 -154 -399
-357 l-186 -188 -88 -165 c-99 -186 -156 -280 -238 -394 -65 -90 -74 -121 -57
-202 l12 -58 -36 -31 c-59 -50 -86 -94 -86 -141 0 -37 -8 -51 -66 -120 -74
-89 -73 -87 -121 -249 -34 -113 -36 -128 -36 -265 -1 -154 13 -245 59 -391 31
-98 84 -179 189 -288 105 -108 140 -133 230 -162 39 -12 88 -31 110 -42 82
-40 288 -207 274 -221 -2 -3 -76 -16 -163 -31 -167 -28 -211 -39 -202 -54 3
-5 99 -12 213 -15 459 -14 493 -16 493 -36 0 -10 -12 -33 -26 -50 -15 -17 -30
-45 -33 -62 -6 -27 -18 -37 -86 -72 -54 -28 -86 -51 -100 -73 -20 -32 -22 -32
-95 -33 -204 -1 -673 -81 -798 -136 l-52 -23 -206 64 c-219 69 -274 82 -274
69 0 -5 13 -31 28 -59 33 -60 41 -64 389 -160 131 -36 289 -80 352 -98 63 -17
129 -41 147 -53 17 -12 46 -25 63 -29 59 -13 26 -69 -57 -96 -51 -16 -61 -26
-88 -87 -19 -44 -27 -53 -41 -47 -64 26 -163 57 -253 80 -58 14 -190 55 -295
90 -298 100 -693 205 -773 205 -59 0 -72 14 -72 75 l0 55 -49 25 c-59 29 -138
49 -160 39 -9 -4 -36 -14 -61 -23 l-45 -16 -6 -70 c-3 -38 -13 -88 -22 -110
-24 -60 -22 -166 3 -198 38 -49 98 -62 276 -62 148 0 165 2 211 23 l50 24 304
-87 c795 -227 1025 -297 1036 -311 6 -9 28 -59 48 -111 30 -76 43 -98 69 -114
30 -18 224 -85 370 -128 l69 -20 28 30 c40 43 87 59 207 69 103 10 108 9 125
-11 23 -29 22 -46 -5 -55 -48 -14 -167 -77 -172 -90 -3 -7 3 -18 12 -24 9 -6
13 -13 7 -16 -5 -3 -73 -37 -150 -77 -163 -84 -175 -99 -182 -221 -5 -85 9
-120 50 -123 15 -1 52 -16 81 -32 78 -45 131 -62 224 -70 46 -5 88 -13 93 -18
14 -14 29 -82 23 -98 -10 -25 -110 -58 -293 -95 -170 -35 -197 -43 -316 -100
-71 -34 -196 -84 -276 -110 -168 -56 -685 -251 -1087 -412 -202 -80 -290 -111
-324 -112 -58 -1 -67 8 -40 37 19 20 22 35 22 108 0 113 -19 134 -79 83 -31
-26 -31 -26 -14 -55 16 -26 16 -31 3 -39 -8 -6 -21 -8 -28 -5 -8 3 -30 8 -51
11 -31 5 -43 1 -81 -28 -61 -47 -79 -88 -89 -204 -7 -82 -6 -102 6 -116 17
-19 11 -49 -13 -69 -14 -11 -13 -15 6 -29 22 -17 39 -72 40 -129 0 -32 -2 -33
-29 -28 -36 7 -54 -11 -49 -50 2 -18 11 -32 26 -38 18 -8 22 -15 18 -35 -26
-112 -21 -135 40 -161 l45 -20 33 20 c18 11 41 36 51 55 23 42 13 59 -43 77
-47 15 -62 27 -62 50 0 16 8 19 55 19 64 0 105 -16 105 -41 0 -10 6 -24 14
-31 9 -10 12 -30 9 -64 -5 -48 -8 -52 -52 -76 -88 -50 -129 -86 -133 -115 l-4
-28 -47 48 -47 47 -65 -11 c-78 -15 -97 -25 -75 -39 14 -10 26 -9 100 6 49 10
38 -20 -48 -136 -117 -157 -137 -175 -204 -189 -32 -7 -62 -10 -68 -6 -21 13
-9 56 25 91 19 19 35 37 35 40 0 3 -15 4 -32 2 l-33 -3 -3 53 c-3 52 -3 53 54
108 31 31 76 64 100 75 46 19 55 33 28 43 -13 5 -14 9 -4 21 6 8 10 22 8 32
-3 15 -14 8 -59 -34 -64 -60 -99 -69 -99 -25 0 45 19 99 45 131 14 16 25 39
25 51 l0 21 27 -19 c16 -11 47 -29 71 -41 39 -20 43 -20 49 -5 6 17 -27 54
-91 100 l-30 21 23 63 c22 59 23 98 4 146 -3 9 2 14 15 14 12 0 35 17 53 40
27 33 34 38 41 25 13 -22 41 -19 65 8 45 48 54 97 18 97 -19 0 -19 2 5 78 11
35 20 81 20 103 0 36 3 40 48 64 61 32 83 52 115 103 26 41 27 41 74 35 32 -3
61 0 84 10 33 13 37 13 62 -5 36 -26 72 -17 139 33 29 21 55 39 59 39 13 0
446 234 483 261 22 16 48 29 58 29 10 0 46 14 80 31 230 116 675 295 855 345
96 26 97 33 17 111 -150 145 -289 229 -495 299 -128 44 -141 46 -308 57 -135
8 -193 8 -255 -2 -45 -7 -109 -16 -142 -21 -34 -4 -98 -24 -142 -44 -85 -38
-192 -77 -282 -103 -56 -16 -94 -38 -135 -79 -13 -13 -31 -24 -40 -24 -25 0
-68 -25 -126 -75 -29 -25 -59 -45 -67 -45 -23 0 -69 -38 -92 -75 -15 -24 -33
-38 -59 -45 -43 -11 -66 -33 -82 -78 -7 -20 -26 -40 -54 -56 -56 -33 -105 -83
-105 -106 0 -12 -10 -21 -30 -25 -45 -10 -77 -41 -94 -93 -13 -39 -23 -50 -57
-67 -56 -27 -83 -65 -84 -118 0 -36 -3 -42 -22 -45 -29 -4 -63 -48 -63 -81 0
-21 -9 -31 -47 -51 -32 -17 -56 -40 -76 -73 -25 -41 -28 -51 -18 -78 14 -41 1
-63 -49 -89 -42 -21 -70 -63 -70 -104 0 -14 -10 -42 -22 -62 -19 -32 -24 -58
-27 -131 -1 -7 -19 -30 -40 -51 -22 -22 -45 -57 -51 -80 -12 -38 -11 -43 13
-72 31 -36 27 -51 -18 -76 -48 -26 -59 -59 -52 -162 4 -77 2 -94 -19 -144 -13
-31 -26 -75 -30 -98 -6 -37 -4 -44 27 -76 l33 -34 -27 -28 c-23 -24 -27 -36
-27 -90 l0 -62 40 -20 c22 -11 40 -23 40 -27 0 -4 -14 -21 -31 -39 l-30 -31
12 -64 c12 -60 21 -76 72 -116 11 -9 13 -27 10 -80 -4 -62 -2 -74 29 -133 23
-46 45 -73 75 -93 25 -17 45 -38 48 -53 3 -13 7 -35 10 -49 7 -34 71 -103 98
-107 14 -2 28 -16 39 -38 9 -20 37 -55 62 -78 35 -33 53 -42 81 -42 32 0 37
-4 60 -50 14 -28 33 -54 42 -57 23 -9 75 -9 94 1 11 5 25 -2 45 -24 38 -41 84
-76 111 -84 16 -5 30 1 56 24 19 16 37 30 40 30 3 0 20 -20 37 -45 36 -52 64
-58 118 -25 43 26 63 25 96 -5 33 -31 82 -33 136 -5 29 15 59 20 112 20 54 0
83 5 110 20 20 10 67 26 104 35 38 9 122 43 189 75 66 33 125 60 131 60 5 0
39 23 74 51 34 28 95 65 134 81 41 16 88 45 111 67 22 22 59 49 83 60 29 15
52 38 72 70 24 38 41 53 80 69 44 18 53 28 76 77 26 55 61 85 101 85 35 1 73
47 73 89 0 12 17 31 44 50 34 24 45 38 51 68 10 57 31 82 90 109 58 25 75 46
75 91 0 35 30 85 66 109 15 11 43 34 62 52 27 26 33 38 29 60 -6 32 8 62 28
62 21 0 43 39 50 90 11 80 14 88 49 108 37 22 56 66 56 134 0 46 17 86 41 93
9 3 28 30 42 59 14 30 38 63 54 73 55 39 682 384 724 398 l42 15 101 -104
c122 -125 148 -141 236 -140 78 0 109 10 260 79 l115 53 170 6 c376 15 451 28
527 95 58 51 129 76 403 144 278 69 390 110 517 190 166 104 358 285 445 418
68 107 136 300 179 510 l18 86 -44 74 c-44 72 -45 75 -48 175 -4 104 5 144 33
144 8 0 49 -18 92 -41 70 -37 83 -41 135 -37 44 3 68 12 110 40 42 27 69 37
119 43 74 8 203 60 269 109 54 39 92 106 145 256 50 143 134 316 203 419 64
96 251 295 320 341 25 16 55 30 67 30 29 0 66 -41 108 -120 56 -106 56 -112
-6 -178 -30 -31 -66 -75 -79 -97 -14 -22 -53 -73 -87 -114 -79 -94 -108 -137
-158 -232 -22 -42 -51 -91 -66 -110 -39 -52 -117 -197 -117 -219 0 -10 -5 -22
-10 -25 -17 -11 -55 -96 -85 -190 -15 -49 -45 -126 -67 -170 -70 -145 -93
-342 -85 -747 6 -326 18 -408 67 -469 26 -33 30 -46 30 -99 0 -76 18 -120 64
-155 43 -33 51 -55 36 -100 -20 -60 23 -136 97 -174 14 -7 24 -24 29 -49 13
-74 48 -117 128 -157 33 -17 42 -27 51 -62 16 -64 84 -129 149 -143 21 -4 36
-17 50 -44 30 -54 124 -111 185 -111 42 0 47 -3 75 -43 18 -25 48 -51 74 -64
43 -20 46 -20 95 -5 l51 17 46 -39 c103 -87 151 -100 210 -56 48 35 73 32 110
-15 30 -37 35 -40 83 -40 35 0 62 7 82 20 41 27 73 25 119 -7 51 -34 103 -33
206 3 72 26 81 27 118 15 50 -17 93 -10 197 34 62 26 98 34 160 38 58 3 98 11
145 31 36 16 102 41 148 56 45 16 118 49 161 74 43 24 106 54 141 66 83 28
110 42 140 75 40 44 147 116 187 127 40 11 103 67 103 92 0 8 20 27 45 42 25
14 60 43 78 64 22 26 44 39 70 44 70 13 119 74 176 218 8 22 17 28 39 28 62 0
106 51 181 207 11 24 33 48 49 57 43 22 78 69 85 113 5 28 14 43 31 53 28 14
46 56 46 106 0 26 8 39 40 64 22 18 48 46 57 64 20 39 43 122 43 158 0 17 13
43 33 65 58 66 67 85 67 139 0 39 9 71 35 125 31 65 35 83 35 151 0 58 7 97
25 150 28 79 31 142 13 230 -12 57 -11 58 15 86 34 36 35 74 1 167 -38 104
-39 119 -14 153 20 27 21 34 11 87 -11 60 -30 90 -61 100 -29 9 -33 36 -10 67
11 15 20 40 20 55 0 32 -42 128 -69 158 -10 11 -22 44 -25 74 -8 61 -29 107
-79 172 -18 25 -39 59 -45 77 -14 41 -63 112 -124 179 -26 29 -48 57 -48 63 0
16 -113 121 -152 141 -21 11 -50 37 -64 58 -26 40 -124 101 -162 101 -11 0
-46 20 -79 44 -77 58 -112 75 -181 87 -32 6 -81 26 -112 45 -68 41 -118 59
-194 68 -32 4 -76 14 -97 21 -37 13 -142 27 -314 40 -55 5 -102 2 -150 -9 -38
-8 -109 -17 -157 -20 -48 -3 -100 -11 -115 -19 -15 -8 -55 -17 -88 -20 -138
-14 -472 -130 -671 -234 -60 -31 -144 -74 -187 -95 -43 -22 -106 -57 -139 -79
-71 -46 -105 -49 -147 -13 -17 14 -31 23 -31 20 0 -39 354 -639 390 -661 5 -3
23 1 39 10 17 8 47 15 67 15 35 0 36 1 22 22 -15 22 -13 24 56 66 39 25 87 50
107 57 20 7 60 27 90 43 67 37 131 55 170 47 25 -6 29 -12 35 -56 7 -52 23
-61 35 -18 11 40 10 104 -3 117 -6 6 -9 14 -6 18 12 12 172 54 205 54 l33 0 0
-147 c0 -92 4 -143 9 -137 6 5 21 73 34 152 14 81 30 150 38 158 15 15 159 37
183 28 19 -7 24 -61 17 -200 -6 -112 -8 -123 -34 -153 -28 -33 -29 -37 -31
-82 -2 -24 0 -26 21 -16 16 7 26 7 36 -1 8 -7 17 -9 20 -5 12 11 7 62 -7 75
-11 11 -8 16 16 31 28 16 29 19 13 31 -20 14 -17 56 5 66 8 4 25 12 37 18 14
8 24 8 28 2 13 -21 56 20 194 187 17 20 23 21 57 11 38 -10 135 -54 184 -83
14 -8 43 -19 65 -25 81 -19 266 -161 321 -246 18 -27 21 -22 -61 -127 -25 -32
-45 -63 -45 -69 0 -22 36 0 67 42 18 25 45 58 58 74 l26 29 34 -33 c18 -18 44
-56 56 -84 12 -28 34 -65 49 -83 35 -40 70 -132 70 -184 0 -22 9 -61 21 -86
17 -37 20 -58 15 -117 -7 -91 -7 -109 0 -178 6 -60 -8 -178 -28 -225 -9 -22
-12 -24 -15 -10 -7 29 -33 22 -248 -73 -138 -62 -168 -66 -275 -37 -81 21 -86
24 -108 65 -28 50 -43 52 -113 17 -60 -31 -84 -26 -103 19 -11 26 -22 35 -50
40 -20 4 -36 9 -36 13 0 3 17 28 37 56 34 45 38 59 40 114 2 74 -12 82 -51 30
-19 -25 -26 -46 -26 -80 0 -58 -8 -77 -30 -77 -25 0 -35 17 -20 35 9 11 8 22
-9 48 -28 46 -27 63 8 70 42 9 56 77 15 77 -8 0 -14 5 -14 10 0 6 9 10 20 10
25 0 26 21 3 48 l-18 21 -52 -35 c-55 -35 -73 -74 -34 -74 26 0 34 -15 22 -39
-10 -18 -14 -18 -63 -5 -78 21 -223 35 -252 25 -13 -6 -36 -22 -50 -38 -22
-24 -28 -26 -36 -13 -15 24 -12 39 16 63 34 29 56 71 48 92 -6 15 -10 13 -30
-8 -16 -17 -30 -24 -44 -20 -20 5 -70 57 -70 73 0 5 -26 -9 -57 -30 l-58 -39
-22 21 c-22 20 -22 22 -5 50 35 59 104 139 128 148 33 13 60 80 31 80 -13 0
-55 -39 -122 -113 -43 -48 -71 -47 -69 3 5 111 4 573 -1 578 -3 3 -7 3 -10 0
-3 -3 -10 -126 -15 -274 -11 -293 -17 -357 -33 -351 -6 2 -57 68 -113 148 -56
79 -112 154 -123 167 -25 27 -26 32 -7 32 22 0 26 24 25 133 -1 116 -8 151
-31 155 -20 4 -28 -36 -28 -134 0 -41 -4 -74 -9 -74 -5 0 -32 21 -60 46 -58
52 -64 44 -27 -39 15 -35 39 -66 66 -88 23 -19 56 -55 74 -81 66 -99 200 -284
224 -310 14 -16 32 -28 39 -28 11 0 11 -5 3 -21 -14 -25 -6 -49 14 -49 8 0 36
-11 62 -25 26 -14 53 -25 60 -25 22 0 83 -81 100 -133 12 -35 15 -67 11 -107
-8 -68 -41 -163 -64 -182 -14 -11 -16 -11 -10 4 53 143 37 291 -39 358 -35 30
-135 81 -186 93 -17 5 -30 17 -37 39 -10 28 -13 30 -25 17 -8 -7 -30 -60 -50
-117 -45 -130 -51 -141 -84 -148 -57 -12 -152 -46 -158 -56 -3 -5 9 -25 27
-44 32 -33 32 -34 13 -49 -22 -17 -118 -55 -138 -55 -15 0 -26 21 -26 47 0 9
-18 31 -40 50 -44 38 -50 65 -25 112 18 36 12 42 -41 34 -51 -7 -55 3 -16 40
31 30 90 57 124 57 31 0 228 97 235 116 6 16 -14 92 -29 108 -4 6 -10 -4 -14
-21 -6 -30 -9 -32 -64 -38 -126 -15 -277 -84 -348 -160 -35 -36 -52 -38 -52
-5 0 28 -16 33 -44 14 -25 -15 -26 -15 -37 10 -9 19 -20 26 -39 26 -28 0 -167
90 -176 115 -8 19 25 65 45 65 9 0 22 -5 29 -12 19 -19 15 -7 -32 93 -24 52
-86 196 -136 319 -51 124 -123 302 -162 395 -38 94 -106 239 -150 323 -75 146
-79 155 -62 173 9 10 36 26 60 35 50 19 59 38 68 144 12 143 52 202 143 210
l55 5 -41 50 c-71 86 -79 154 -23 191 42 29 102 41 280 60 78 8 162 21 187 28
39 12 290 141 590 303 133 71 470 236 520 254 61 21 280 17 465 -10 87 -12
234 -25 335 -28 201 -6 221 -2 289 57 46 41 66 78 66 124 0 71 -51 102 -380
226 -118 45 -325 125 -460 177 -135 53 -267 102 -295 110 -77 23 -170 12 -306
-35 -151 -52 -267 -77 -469 -103 -218 -27 -375 -62 -637 -145 -90 -29 -115
-33 -132 -24 -12 6 -21 16 -21 23 -7 203 -25 299 -79 412 -39 82 -142 218
-192 254 -55 41 -245 134 -260 129 -7 -2 21 -31 62 -63 106 -85 263 -241 222
-220 -36 17 -41 10 -19 -33 18 -36 27 -100 15 -107 -5 -4 -9 7 -9 24 0 42 -16
47 -58 17 -44 -31 -51 -27 -22 14 33 47 17 48 -43 1 -30 -22 -56 -41 -60 -41
-13 0 -47 70 -47 98 0 23 8 36 31 53 29 20 31 25 25 62 -9 56 -23 70 -61 63
-30 -6 -32 -4 -54 49 -27 64 -104 155 -132 155 -30 0 -22 -23 21 -65 36 -35
46 -56 81 -165 21 -69 48 -144 59 -165 12 -22 30 -73 41 -113 29 -109 101
-240 126 -231 6 2 26 24 44 48 49 63 84 88 103 71 10 -8 28 -10 52 -5 30 5 41
2 61 -17 14 -13 31 -35 39 -50 14 -27 13 -29 -36 -83 -40 -44 -50 -62 -50 -90
0 -42 -29 -65 -82 -65 -36 0 -40 3 -98 89 -65 98 -80 113 -80 82 0 -34 59
-208 75 -221 35 -29 0 -122 -56 -151 l-39 -19 -131 66 c-117 60 -143 77 -230
162 -55 52 -99 101 -99 110 0 8 11 29 24 46 76 100 95 213 57 349 -23 85 -26
123 -11 132 18 11 11 37 -12 43 -20 6 -18 7 12 12 71 10 33 44 -74 65 -16 3
-43 22 -60 42 -87 103 -120 133 -142 133 -13 0 -67 -16 -121 -35 -54 -19 -105
-35 -113 -35 -8 0 -20 11 -26 24 -10 21 -7 31 17 68 l29 43 -73 10 c-56 8
-100 23 -192 70 -113 55 -127 66 -230 170 -101 102 -115 113 -164 125 -50 12
-55 11 -69 -6 -14 -18 -14 -18 -8 4 3 12 9 31 12 41 12 39 -137 123 -257 145
-85 17 -113 34 -140 89 -36 71 -78 116 -129 138 -26 11 -60 33 -75 49 l-27 28
21 47 c45 103 123 216 201 291 43 42 84 90 91 106 16 39 42 43 145 18 75 -19
106 -21 199 -16 167 9 225 33 225 91 0 31 -13 44 -128 123 -50 35 -140 103
-200 152 -124 100 -144 111 -227 135 -89 25 -115 36 -115 51 0 19 57 18 94 -1
38 -20 45 -11 19 23 -30 41 -79 70 -157 94 -105 31 -160 62 -184 103 -16 26
-28 35 -48 35 -16 0 -48 16 -78 38 -68 52 -115 69 -259 92 -128 21 -219 23
-327 9z m-366 -250 c26 -30 34 -59 18 -59 -5 0 -14 11 -20 25 -7 14 -20 25
-31 25 -21 0 -45 23 -34 33 15 15 43 5 67 -24z m100 -19 c30 -11 35 -44 12
-76 -12 -16 -15 -16 -19 -4 -34 105 -35 96 7 80z m406 -100 c0 -5 -4 -10 -10
-10 -5 0 -10 5 -10 10 0 6 5 10 10 10 6 0 10 -4 10 -10z m-694 -590 c7 -24 12
-46 10 -47 -8 -8 -37 37 -42 66 -11 51 16 35 32 -19z m1137 -431 c35 -38 34
-51 -6 -96 l-34 -36 -11 44 c-5 24 -13 64 -17 88 -7 42 -6 43 16 36 13 -4 36
-20 52 -36z m167 -78 c0 -12 -57 -22 -87 -15 -18 5 -21 9 -11 15 17 11 98 11
98 0z m77 -94 c-6 -19 -22 -6 -25 20 -2 27 -2 27 13 8 8 -10 14 -23 12 -28z
m-114 -483 c28 -36 92 -64 150 -64 33 0 49 -5 53 -15 5 -12 24 -15 86 -15 101
0 117 -9 234 -137 49 -53 123 -123 164 -156 41 -33 77 -61 79 -63 2 -2 3 -55
2 -118 l-2 -113 155 -154 c86 -84 156 -156 156 -160 0 -6 -116 -52 -267 -105
-80 -28 -84 -28 -115 -12 -18 9 -55 24 -82 33 -63 20 -98 9 -156 -50 -24 -25
-48 -45 -52 -45 -13 0 -9 35 7 56 27 35 19 44 -42 44 l-58 0 29 27 29 27 -21
14 c-25 17 -29 50 -7 58 18 7 19 26 3 42 -9 9 -18 6 -40 -15 -27 -26 -28 -26
-60 -10 -18 9 -41 18 -52 21 -14 5 -16 9 -7 19 15 19 -8 65 -34 69 -11 2 -20
10 -20 18 0 8 -11 17 -25 20 -18 4 -26 13 -28 33 -3 21 -9 27 -28 27 -21 0
-24 4 -24 37 0 21 8 45 18 56 16 19 13 28 -100 248 l-117 229 28 32 c16 18 32
49 35 68 13 60 16 69 34 73 38 10 55 6 75 -19z m828 -124 c52 -21 120 -54 152
-73 31 -19 70 -40 87 -47 16 -7 30 -16 30 -20 0 -7 -71 -40 -85 -40 -3 0 -5
14 -5 30 0 36 -16 38 -62 10 -18 -11 -39 -20 -46 -20 -17 0 -192 169 -192 186
0 21 19 17 121 -26z m584 -350 c16 -16 26 -32 24 -35 -8 -7 -47 23 -59 46 -16
28 2 23 35 -11z m-1400 -150 c-3 -5 -13 -10 -21 -10 -8 0 -12 5 -9 10 3 6 13
10 21 10 8 0 12 -4 9 -10z m1214 -16 c17 -14 66 -76 108 -137 42 -62 128 -183
190 -269 169 -238 174 -255 29 -119 -90 85 -100 91 -179 115 l-84 26 -36 78
c-21 43 -37 88 -37 100 0 12 -12 47 -26 79 -57 126 -55 120 -38 137 22 22 38
20 73 -10z m365 -80 c24 -9 19 -42 -9 -68 -28 -26 -67 -37 -86 -26 -20 13 -1
59 34 80 35 22 38 23 61 14z m-2413 -189 c75 -30 157 -89 279 -201 52 -48 146
-125 207 -171 62 -46 143 -111 180 -145 38 -33 101 -85 141 -115 39 -30 72
-58 72 -63 0 -11 -144 -139 -257 -227 -117 -91 -315 -207 -568 -333 -192 -96
-500 -230 -527 -230 -6 0 -7 42 -3 103 10 157 -5 254 -60 364 -32 65 -59 103
-93 135 -70 62 -236 163 -333 202 -46 19 -85 40 -86 48 -2 7 10 35 25 63 21
39 45 62 109 105 45 30 119 92 166 136 46 45 97 90 113 99 16 10 72 60 124
111 l95 92 90 11 c50 6 113 18 140 25 74 21 119 19 186 -9z m2267 -314 c13 -7
22 -16 20 -21 -4 -10 -237 -203 -287 -237 -19 -13 -44 -23 -57 -23 -27 0 -414
-129 -462 -154 -23 -12 -31 -23 -29 -38 1 -17 -10 -31 -47 -56 -55 -37 -79
-38 -84 -4 -4 26 -19 28 -69 7 -55 -23 -52 -19 18 30 107 76 379 207 582 280
42 15 77 32 77 36 0 5 -2 9 -5 9 -14 0 -235 -64 -322 -94 -57 -19 -103 -31
-103 -26 0 15 118 81 205 115 86 34 182 93 224 139 l24 26 -38 0 c-48 0 -38
11 18 21 67 12 309 5 335 -10z m412 -91 c0 -5 -7 -10 -15 -10 -8 0 -15 5 -15
10 0 6 7 10 15 10 8 0 15 -4 15 -10z m-23 -198 c26 -20 99 -143 159 -266 46
-95 52 -116 31 -116 -14 0 -201 40 -202 43 -1 1 -11 38 -24 82 -12 44 -41 117
-63 163 -22 45 -38 89 -34 97 8 22 104 20 133 -3z m-4641 -33 c9 -16 -12 -33
-31 -25 -14 5 -15 9 -5 21 15 18 26 19 36 4z m3883 -40 c-16 -10 -23 -4 -14
10 3 6 11 8 17 5 6 -4 5 -9 -3 -15z m-4019 -4 c0 -9 -7 -18 -16 -22 -18 -7
-39 11 -30 26 11 17 46 13 46 -4z m1095 -16 c98 -25 125 -49 56 -49 -70 0 -85
-12 -135 -108 -25 -50 -46 -97 -46 -104 0 -8 12 -25 26 -39 l25 -24 -26 -7
c-38 -10 -123 2 -137 19 -26 32 50 264 100 304 28 21 76 24 137 8z m2781 -14
c-40 -31 -177 -72 -150 -46 8 8 151 61 164 60 3 0 -4 -6 -14 -14z m194 5 c0
-14 -49 -44 -58 -36 -4 4 4 16 18 26 28 22 40 25 40 10z m-4204 -40 c-3 -16
-9 -44 -12 -60 -7 -36 -18 -31 -44 20 -26 50 -25 72 0 40 20 -24 21 -25 35 -6
8 11 15 23 15 28 0 4 3 8 6 8 3 0 3 -13 0 -30z m3854 -131 l33 -12 -24 -13
c-32 -18 -132 -19 -127 -2 3 7 22 18 44 25 21 6 39 12 40 12 1 1 16 -4 34 -10z
m-955 -180 c10 -16 -20 -44 -108 -101 -160 -102 -451 -242 -620 -298 -109 -35
-87 -18 36 29 220 85 432 201 605 331 69 53 77 56 87 39z m2232 -39 c59 -25
67 -36 186 -245 89 -156 137 -252 137 -275 0 -9 14 -32 30 -52 l30 -37 -42
-29 c-59 -39 -127 -76 -132 -71 -2 2 -16 29 -31 59 -15 30 -85 156 -155 280
-146 258 -183 330 -176 337 2 3 24 -8 48 -24 24 -16 49 -33 56 -37 23 -14 12
14 -21 51 -68 78 -67 77 -22 71 22 -3 64 -15 92 -28z m-1347 -57 c-4 -16 -36
-109 -69 -208 -34 -99 -84 -254 -112 -344 -28 -90 -55 -174 -61 -186 -6 -13
-46 -46 -89 -74 -58 -38 -90 -68 -125 -116 l-46 -65 -63 0 c-41 0 -67 5 -74
14 -16 19 3 32 62 40 27 4 46 10 43 13 -3 3 -34 15 -68 27 l-63 21 2 39 c4 52
33 110 58 114 11 2 23 7 27 10 8 7 -40 242 -67 332 l-17 54 30 27 c83 75 564
328 624 329 13 0 15 -5 8 -27z m-3255 -115 c79 -23 135 -49 154 -72 10 -12 8
-23 -13 -59 -14 -24 -26 -55 -26 -68 0 -28 -21 -71 -34 -73 -6 0 -14 14 -18
32 -12 45 -36 39 -66 -16 -13 -23 -27 -42 -31 -42 -11 0 -141 285 -141 309 0
34 28 33 175 -11z m2135 -78 c0 -5 -7 -10 -16 -10 -8 0 -12 5 -9 10 3 6 10 10
16 10 5 0 9 -4 9 -10z m-1865 -20 c3 -5 -6 -16 -19 -25 -14 -9 -33 -37 -42
-61 -18 -46 -45 -70 -70 -60 -27 10 29 100 74 117 27 10 21 24 -13 32 -11 3
-1 5 22 6 23 0 44 -3 48 -9z m2095 -56 c0 -4 -17 -34 -38 -68 -21 -34 -47 -83
-56 -111 -10 -27 -22 -58 -27 -67 -5 -10 -9 -28 -9 -41 0 -25 -50 -79 -114
-121 -44 -29 -66 -33 -66 -11 0 39 -45 5 -367 -276 -143 -125 -139 -133 36
-69 60 22 114 40 120 40 23 0 10 -30 -16 -35 -16 -4 -66 -20 -113 -37 -47 -17
-121 -42 -165 -56 -65 -20 -86 -32 -108 -61 -16 -20 -123 -136 -238 -258 -187
-198 -240 -246 -255 -230 -6 6 62 91 148 185 102 112 142 169 168 242 40 115
99 226 146 279 121 135 718 616 838 676 46 23 116 34 116 19z m140 -44 c0 -12
-35 -31 -44 -23 -8 9 14 33 30 33 8 0 14 -4 14 -10z m-1114 -89 c-21 -23 -156
-96 -156 -84 0 10 24 26 105 70 70 38 74 39 51 14z m-1088 -62 c28 -6 52 -15
52 -20 0 -11 -2 -11 -97 2 -95 12 -113 17 -113 31 0 10 61 5 158 -13z m252
-138 c0 -5 -9 -19 -20 -32 -21 -26 -27 -11 -10 22 11 19 30 26 30 10z m-434
-41 c11 -5 34 -20 52 -35 42 -35 42 -67 0 -93 -33 -21 -141 -52 -188 -55 -23
-2 -25 1 -23 37 2 22 16 68 33 103 l29 64 38 -7 c21 -4 47 -10 59 -14z m2231
-36 c9 -23 -8 -45 -53 -71 -48 -28 -71 -29 -79 -4 -9 29 4 50 44 71 45 24 80
25 88 4z m-1661 -50 c40 -42 42 -54 11 -54 -26 0 -97 55 -97 76 0 28 51 15 86
-22z m45 -131 c13 -16 12 -17 -3 -4 -10 7 -18 15 -18 17 0 8 8 3 21 -13z
m1469 -37 c0 -3 -4 -8 -10 -11 -5 -3 -10 -1 -10 4 0 6 5 11 10 11 6 0 10 -2
10 -4z m-1982 -88 c8 -7 23 -31 32 -53 23 -53 53 -78 127 -108 73 -30 112 -55
171 -111 38 -36 72 -83 72 -101 0 -11 -52 -4 -152 20 -57 14 -115 25 -130 25
-15 0 -48 6 -74 12 -42 11 -49 11 -84 -10 -42 -24 -85 -29 -96 -11 -6 11 -47
8 -91 -6 -19 -6 -25 -2 -33 20 -5 14 -10 50 -10 79 0 47 6 62 49 127 53 81 83
112 121 128 29 12 76 6 98 -11z m6996 -108 c14 -5 26 -14 26 -20 0 -11 -125
-176 -142 -186 -8 -5 -9 15 -4 69 4 48 3 78 -4 82 -20 12 -9 36 23 50 38 17
67 18 101 5z m96 -15 c0 -9 -9 -15 -22 -15 -22 1 -23 1 -4 15 25 19 26 19 26
0z m-5850 -144 c0 -11 -118 -169 -133 -178 -15 -9 27 62 78 132 38 52 55 66
55 46z m895 -1 c3 -5 1 -28 -5 -50 -12 -46 -59 -82 -100 -78 -21 3 -25 8 -24
36 3 45 28 80 67 91 43 12 55 13 62 1z m-207 -141 c34 -12 48 -39 34 -64 -8
-15 -10 -15 -21 -1 -8 9 -29 16 -51 16 -25 0 -40 5 -44 16 -10 25 -7 32 12 37
29 8 38 7 70 -4z m-354 -46 c6 -14 9 -14 27 3 15 14 41 19 109 22 62 3 90 1
90 -7 0 -6 16 -29 36 -51 l36 -40 -123 0 c-68 0 -134 -3 -146 -6 -20 -5 -23
-2 -23 20 0 21 -5 26 -25 26 -14 0 -25 5 -25 10 0 6 -4 10 -10 10 -5 0 -10
-11 -10 -24 0 -14 -7 -32 -16 -40 -18 -19 -60 -21 -62 -3 -8 61 -10 59 53 82
63 24 80 23 89 -2z m1031 -44 c11 -17 0 -20 -21 -4 -17 13 -17 14 -2 15 9 0
20 -5 23 -11z m-1555 -20 c-7 -11 -41 -52 -76 -91 -70 -76 -124 -161 -178
-280 -40 -89 -41 -88 62 -88 86 -1 148 -15 194 -45 37 -24 37 -25 23 -57 -17
-42 -38 -46 -70 -14 -21 21 -35 26 -78 26 -67 0 -205 -36 -386 -99 l-143 -51
-64 64 c-35 35 -64 71 -64 79 0 12 16 17 68 21 248 21 346 41 373 77 10 13 50
86 91 163 61 116 87 153 157 227 81 87 113 111 91 68z m-905 -20 c35 -10 103
-70 116 -104 5 -13 -64 -28 -126 -26 -76 2 -141 -15 -287 -74 -73 -30 -141
-55 -150 -55 -20 0 -23 27 -9 98 6 28 17 49 32 60 13 9 49 40 79 70 l55 53
125 -6 c69 -3 143 -11 165 -16z m22 -317 c12 -7 6 -13 -31 -27 l-46 -18 -55
37 c-30 20 -55 40 -55 45 0 10 160 -22 187 -37z m423 15 c0 -2 -14 -16 -32
-33 -30 -28 -30 -17 0 19 13 15 32 23 32 14z m-599 -46 c49 -44 47 -51 -21
-70 -62 -18 -114 -46 -158 -85 -46 -41 -67 -49 -82 -31 -9 10 -8 19 1 37 35
69 161 188 199 188 9 0 37 -18 61 -39z m2594 -71 c3 -5 21 -10 39 -10 33 0 62
-20 49 -33 -8 -9 -116 -9 -137 -1 -19 7 -21 25 -4 42 15 15 45 16 53 2z m-811
-46 c39 -38 -1 -145 -65 -177 -35 -17 -113 -26 -125 -14 -15 15 -15 86 0 116
35 67 152 114 190 75z m373 -39 c3 -9 3 -19 -1 -22 -7 -7 -36 16 -36 28 0 15
30 10 37 -6z m-68 -59 c9 -11 9 -20 2 -34 -18 -34 -204 -202 -231 -209 -14 -3
-37 -14 -52 -25 -18 -13 -29 -15 -34 -7 -10 17 28 61 75 87 30 17 44 32 48 53
4 22 13 31 40 38 45 13 102 56 113 87 11 27 22 30 39 10z m-791 -49 c5 -24
-39 -22 -60 2 -16 19 -15 20 20 17 26 -1 38 -7 40 -19z m3903 -84 c147 -94
245 -167 227 -171 -10 -2 -89 13 -176 32 -88 20 -171 36 -186 36 -34 0 -42 20
-22 58 18 34 65 92 75 92 4 0 41 -21 82 -47z m-3601 -43 c0 -5 -5 -10 -11 -10
-5 0 -7 5 -4 10 3 6 8 10 11 10 2 0 4 -4 4 -10z m140 -140 c12 -23 6 -40 -15
-40 -19 0 -27 17 -20 40 8 26 21 25 35 0z m3603 -40 c66 -12 84 -24 50 -34
-10 -3 -113 -19 -229 -35 -117 -17 -219 -33 -227 -37 -28 -10 -26 13 7 83 l34
69 148 -17 c82 -10 179 -23 217 -29z m-5295 -27 c2 -8 -5 -13 -16 -13 -10 0
-47 -3 -82 -7 -60 -6 -62 -5 -52 14 10 17 21 20 78 19 44 -1 69 -5 72 -13z
m1642 2 c0 -15 -26 -32 -36 -23 -2 3 -2 13 2 22 8 20 34 21 34 1z m3850 -54
c7 -14 4 -52 -11 -137 -29 -171 -48 -257 -59 -268 -6 -6 -100 -3 -248 8 -272
19 -357 31 -391 53 -21 13 -23 20 -18 63 3 26 19 77 35 112 l29 64 239 48
c131 27 264 54 294 61 82 20 117 18 130 -4z m1810 -64 c0 -7 -9 -20 -20 -30
-26 -22 -27 -52 -2 -42 9 4 24 9 33 12 17 5 129 -13 138 -22 15 -16 -22 -41
-75 -52 -32 -6 -63 -18 -69 -26 -9 -13 -14 -12 -34 4 -47 38 -101 13 -72 -34
16 -24 2 -40 -30 -35 -23 3 -24 7 -27 101 -2 89 5 117 23 87 12 -19 52 -10 80
20 30 31 55 39 55 17z m650 -9 c-1 -13 -16 -59 -35 -103 -28 -64 -36 -76 -41
-58 -7 26 -37 39 -127 54 -37 6 -69 15 -72 19 -9 14 210 109 253 110 16 0 22
-6 22 -22z m-2313 -80 c47 -52 47 -63 -3 -107 -50 -43 -79 -53 -70 -23 2 9 10
44 16 77 17 86 22 91 57 53z m2061 -72 c112 -21 172 -48 172 -77 0 -50 -70
-205 -101 -224 -21 -13 -446 130 -481 162 -26 24 -22 37 21 76 28 25 62 42
113 57 40 12 78 23 83 25 16 7 102 -2 193 -19z m-1828 -65 c0 -5 15 -18 33
-30 17 -11 25 -21 17 -21 -23 0 -90 49 -90 66 0 12 4 12 20 4 11 -6 20 -15 20
-19z m-114 -13 c9 -15 -27 -41 -40 -28 -6 6 -5 15 4 25 15 18 26 19 36 3z
m1495 -41 c-3 -57 10 -77 53 -77 46 0 221 -55 302 -95 87 -42 124 -71 124 -95
0 -31 -40 -113 -81 -166 -21 -28 -39 -53 -39 -56 0 -18 -94 -143 -151 -202
-64 -66 -69 -68 -103 -62 -34 7 -49 -5 -26 -19 6 -3 10 -19 10 -34 0 -22 -17
-45 -80 -105 -44 -42 -85 -76 -90 -76 -6 0 -51 -38 -100 -85 -92 -87 -129
-107 -155 -85 -12 10 -15 9 -15 -8 0 -34 -74 -87 -239 -170 -181 -91 -208
-101 -396 -141 -224 -48 -311 -62 -362 -59 -65 4 -66 23 -8 138 56 112 67 140
56 140 -10 0 -110 -175 -136 -236 l-15 -37 -78 7 c-42 4 -105 12 -140 18 -58
9 -63 12 -69 39 -6 30 -17 37 -29 18 -11 -19 -120 -6 -152 18 -40 30 -39 55 9
122 24 34 40 64 36 68 -8 7 -21 -8 -69 -79 -17 -27 -39 -48 -47 -48 -9 0 -50
19 -91 43 -120 67 -121 64 132 359 138 161 211 234 241 244 22 7 22 6 81 -75
l30 -41 97 0 c54 0 120 -5 148 -12 49 -11 51 -10 75 15 20 22 34 27 73 27 61
0 95 9 90 24 -3 6 -24 10 -53 9 l-49 -2 30 24 c41 34 68 32 99 -7 14 -18 32
-41 40 -50 9 -10 13 -24 10 -33 -5 -13 2 -14 42 -9 59 8 63 11 74 60 7 29 5
44 -8 66 -9 15 -14 29 -11 32 2 2 25 7 50 11 l45 7 -10 -68 c-7 -51 -7 -69 2
-72 7 -2 12 -15 12 -28 0 -13 2 -24 5 -24 2 0 28 14 57 31 48 28 59 31 112 26
l59 -5 44 48 c23 26 51 50 61 52 25 7 62 -9 62 -25 0 -8 6 -20 14 -26 12 -11
15 -6 18 30 3 41 5 44 55 65 l52 23 36 -59 c20 -33 41 -60 46 -60 13 0 12 4
-26 80 -19 38 -35 72 -35 75 0 16 52 -1 138 -44 53 -27 108 -52 122 -56 l25
-7 -23 24 c-12 14 -63 49 -112 77 l-89 53 18 36 c10 21 21 54 25 74 6 31 15
42 49 63 l43 25 75 -24 c41 -12 106 -37 145 -54 38 -17 91 -37 117 -44 44 -11
49 -11 68 9 l22 21 -29 15 c-16 8 -67 24 -114 35 -47 12 -125 31 -175 42 -49
12 -94 26 -99 30 -12 12 20 100 55 153 29 44 29 45 12 76 -15 26 -24 31 -58
31 -54 0 -69 11 -61 45 7 27 14 28 58 10 13 -5 19 0 23 22 11 49 15 55 32 51
14 -3 17 -12 14 -51z m-2501 -36 c0 -12 -20 -25 -27 -18 -7 7 6 27 18 27 5 0
9 -4 9 -9z m449 -70 c9 -6 -2 -15 -41 -29 -60 -22 -330 -97 -389 -107 -50 -9
-64 10 -55 77 4 29 9 55 12 60 7 11 455 10 473 -1z m191 -40 c0 -3 -42 -48
-92 -98 -77 -76 -109 -100 -188 -140 -94 -47 -95 -48 -57 -51 20 -2 37 -7 37
-12 0 -10 -309 -310 -319 -310 -16 0 -51 80 -51 116 0 22 -7 61 -15 88 -19 61
-20 211 -2 223 6 4 59 22 117 39 58 18 185 57 283 89 220 70 287 83 287 56z
m10 -75 c0 -8 -7 -16 -15 -20 -15 -5 -21 14 -8 27 11 12 23 8 23 -7z m30 -157
c14 -37 38 -89 53 -116 15 -29 27 -66 27 -87 0 -69 -57 -171 -115 -205 -18
-10 -39 -32 -47 -48 -21 -42 -299 -373 -313 -373 -31 0 -82 50 -115 112 -19
37 -45 77 -57 90 -28 31 -83 142 -83 169 0 15 71 93 228 248 217 217 230 228
297 254 39 14 77 25 85 24 8 -1 26 -32 40 -68z m150 0 c11 -21 24 -39 29 -39
14 0 19 23 9 43 -10 19 -8 20 16 11 22 -8 20 -18 -10 -54 l-27 -31 23 -24 c24
-26 20 -45 -10 -45 -31 0 -91 137 -76 175 8 22 22 11 46 -36z m-4560 -34 c0
-3 -4 -13 -9 -23 -5 -9 -12 -25 -15 -34 -6 -19 -36 -25 -36 -7 0 15 39 69 51
69 5 0 9 -2 9 -5z m4950 -29 c0 -3 -4 -8 -10 -11 -5 -3 -10 -1 -10 4 0 6 5 11
10 11 6 0 10 -2 10 -4z m38 -86 c-1 -24 5 -47 15 -57 30 -34 25 -48 -18 -48
-36 0 -40 -3 -40 -25 0 -20 6 -26 28 -28 30 -4 30 -4 21 -26 -9 -24 -27 -20
-58 13 -27 28 -27 29 -12 66 9 21 16 52 16 69 0 32 23 76 40 76 6 0 9 -18 8
-40z m-318 -30 c0 -5 -5 -10 -11 -10 -5 0 -7 5 -4 10 3 6 8 10 11 10 2 0 4 -4
4 -10z m780 -85 c0 -17 9 -29 30 -40 17 -9 30 -20 30 -25 0 -6 6 -10 13 -10 8
0 22 -9 32 -20 10 -11 24 -20 32 -20 7 0 13 -5 13 -11 0 -8 -11 -9 -32 -4 -18
4 -52 7 -75 7 -41 1 -41 1 -36 33 3 22 0 41 -11 56 -17 26 -22 74 -6 64 6 -3
10 -17 10 -30z m-356 -4 c3 -5 27 -12 53 -16 62 -9 77 -18 103 -60 26 -42 21
-85 -10 -85 -17 0 -20 7 -20 44 0 41 -2 44 -32 50 -74 15 -85 18 -107 35 -13
10 -21 23 -17 30 9 13 23 14 30 2z m-5894 -35 c0 -2 -7 -7 -16 -10 -8 -3 -12
-2 -9 4 6 10 25 14 25 6z m-110 -51 c-7 -8 -18 -15 -24 -15 -6 0 -2 7 8 15 25
19 32 19 16 0z m-2610 -24 c0 -5 -10 -11 -22 -15 -35 -9 -78 -7 -78 3 0 9 28
16 78 20 12 0 22 -3 22 -8z m2540 -15 c-8 -8 -60 -40 -115 -71 -55 -32 -124
-75 -154 -96 -55 -39 -71 -41 -70 -11 0 12 54 44 172 104 95 48 174 87 177 88
2 0 -2 -6 -10 -14z m-1295 -400 c-23 -143 -46 -227 -59 -223 -13 4 -46 93 -46
123 0 11 -17 40 -37 63 l-37 43 24 45 c28 54 66 82 122 91 40 7 43 6 46 -17 2
-13 -4 -70 -13 -125z m-1389 89 c7 -19 14 -36 14 -39 0 -2 -23 -3 -51 -2 -35
2 -56 9 -71 24 l-22 21 25 9 c13 5 31 12 39 15 35 13 51 6 66 -28z m2579 15
c3 -5 -3 -10 -14 -10 -12 0 -21 5 -21 10 0 6 6 10 14 10 8 0 18 -4 21 -10z
m-1365 -14 c0 -8 -11 -28 -25 -43 -23 -26 -26 -26 -36 -10 -6 10 -22 17 -40
17 -37 0 -30 16 15 36 42 18 86 18 86 0z m-134 -86 c23 -10 44 -23 48 -28 8
-13 -62 -94 -75 -86 -5 3 -9 16 -9 29 0 25 -17 35 -59 35 -43 0 -65 22 -57 55
7 27 8 27 59 21 29 -4 71 -16 93 -26z m-1383 -72 c-2 -4 -10 -5 -18 -1 -18 6
-20 64 -2 82 10 10 13 4 18 -31 4 -24 5 -46 2 -50z m817 73 c0 -6 -4 -13 -10
-16 -5 -3 -10 1 -10 9 0 9 5 16 10 16 6 0 10 -4 10 -9z m670 -86 c0 -7 6 -18
14 -22 23 -13 76 -170 76 -226 0 -39 -27 -100 -42 -95 -8 3 -14 27 -16 62 -4
85 -21 104 -90 108 -68 4 -69 13 -18 89 19 26 36 59 40 73 7 27 36 36 36 11z
m-231 -18 c13 -16 5 -27 -20 -27 -21 0 -33 15 -24 30 9 14 31 12 44 -3z
m-1089 -1 c0 -3 -4 -8 -10 -11 -5 -3 -10 -1 -10 4 0 6 5 11 10 11 6 0 10 -2
10 -4z m0 -460 c0 -3 -4 -8 -10 -11 -5 -3 -10 -1 -10 4 0 6 5 11 10 11 6 0 10
-2 10 -4z m170 -171 c0 -15 -18 -27 -64 -45 -38 -14 -32 3 11 33 43 31 53 33
53 12z m-10 -106 c0 -44 -15 -66 -62 -90 -35 -18 -143 -59 -155 -59 -7 0 -2
60 7 84 6 18 17 26 32 26 13 0 55 15 93 34 39 19 73 35 78 35 4 1 7 -13 7 -30z
m-244 -59 c-13 -80 -35 -118 -82 -140 -24 -12 -44 -23 -44 -25 0 -2 16 -1 35
2 36 6 40 2 35 -41 -3 -26 -36 -131 -51 -158 -17 -32 -100 -118 -114 -118 -6
0 -31 17 -54 39 -31 29 -40 43 -35 57 11 30 89 149 126 191 18 21 50 64 71 96
37 56 104 137 114 137 3 0 3 -18 -1 -40z m530 -66 c13 -18 11 -25 -13 -58 -16
-21 -42 -54 -59 -74 -29 -33 -33 -35 -49 -22 -26 21 -55 89 -55 128 0 28 3 32
23 27 12 -2 36 2 52 10 41 19 85 15 101 -11z m-346 -22 c0 -4 -48 -52 -107
-107 -94 -87 -108 -97 -111 -77 -4 29 24 126 40 140 17 14 128 50 156 51 12 1
22 -2 22 -7z m70 -77 c0 -72 -19 -172 -55 -289 -32 -105 -21 -129 25 -55 25
40 150 159 168 159 5 0 17 -9 27 -19 16 -19 16 -24 -11 -107 -34 -104 -49
-118 -154 -140 -110 -23 -142 -26 -169 -17 -23 9 -23 10 20 41 56 42 45 40
-40 -5 l-69 -36 -48 24 c-60 30 -65 54 -33 161 19 65 29 80 98 152 97 100 221
207 232 200 5 -3 9 -34 9 -69z m680 -74 c0 -12 -46 -41 -54 -34 -3 4 -6 15 -6
25 0 13 8 18 30 18 17 0 30 -4 30 -9z m-1210 -9 c0 -15 -62 -82 -71 -77 -16
10 -10 38 13 62 20 22 58 32 58 15z m585 -117 c-27 -25 -53 -45 -57 -45 -14 0
-8 49 13 106 l21 56 37 -36 36 -37 -50 -44z m165 94 c-7 -11 -14 -18 -17 -15
-8 8 5 36 17 36 7 0 7 -6 0 -21z m103 7 c34 -21 126 -37 174 -30 35 5 43 3 43
-9 0 -33 -41 -47 -130 -46 -109 0 -156 15 -152 48 3 26 19 51 34 51 5 0 19 -6
31 -14z m-4 -197 c17 -6 31 -15 31 -21 0 -5 -21 -18 -46 -30 -47 -20 -63 -16
-64 19 0 42 22 52 79 32z m-119 -69 c0 -5 -5 -10 -11 -10 -5 0 -7 5 -4 10 3 6
8 10 11 10 2 0 4 -4 4 -10z"/>
<path d="M6712 6300 c-165 -82 -212 -119 -212 -166 0 -13 3 -24 6 -24 18 0
156 84 164 101 8 13 21 19 46 19 22 0 37 6 40 15 4 8 17 15 31 15 32 0 78 25
97 52 20 28 21 68 2 68 -8 0 -87 -36 -174 -80z"/>
<path d="M6675 6137 c-127 -58 -176 -87 -187 -112 -12 -28 -3 -74 17 -81 7 -3
67 22 133 55 l119 61 6 41 c5 41 1 69 -12 69 -3 0 -37 -15 -76 -33z"/>
<path d="M6582 5798 c-20 -20 -14 -56 13 -74 30 -19 41 -13 50 27 11 48 -31
79 -63 47z"/>
<path d="M6455 5700 c-7 -12 2 -30 16 -30 5 0 9 9 9 20 0 21 -15 27 -25 10z"/>
<path d="M3756 6201 c-4 -5 -2 -12 3 -15 5 -4 12 -2 15 3 4 5 2 12 -3 15 -5 4
-12 2 -15 -3z"/>
<path d="M4027 5253 c-4 -3 -7 -11 -7 -17 0 -6 5 -5 12 2 6 6 9 14 7 17 -3 3
-9 2 -12 -2z"/>
<path d="M11224 3789 c-10 -17 13 -36 27 -22 12 12 4 33 -11 33 -5 0 -12 -5
-16 -11z"/>
<path d="M11097 2783 c11 -29 35 -63 44 -63 5 0 -1 18 -13 40 -23 40 -43 55
-31 23z"/>
<path d="M10890 2698 c0 -13 5 -30 10 -38 7 -11 10 -7 10 17 0 17 -4 35 -10
38 -6 3 -10 -4 -10 -17z"/>
<path d="M10146 2688 c-21 -30 -2 -52 20 -24 16 23 19 46 5 46 -6 0 -17 -10
-25 -22z"/>
<path d="M10127 2612 c-23 -25 -21 -34 6 -30 14 2 23 11 25 26 4 27 -9 28 -31
4z"/>
<path d="M9555 2580 c-3 -5 -1 -10 4 -10 6 0 11 5 11 10 0 6 -2 10 -4 10 -3 0
-8 -4 -11 -10z"/>
<path d="M10051 2469 c-20 -32 -27 -59 -16 -59 8 0 47 82 41 87 -3 3 -14 -10
-25 -28z"/>
<path d="M9187 2706 c-69 -29 -197 -103 -197 -115 0 -24 36 -12 153 52 117 66
146 87 115 87 -7 0 -39 -11 -71 -24z"/>
<path d="M1590 1350 c0 -5 5 -10 11 -10 5 0 7 5 4 10 -3 6 -8 10 -11 10 -2 0
-4 -4 -4 -10z"/>
<path d="M4600 9793 c0 -5 24 -17 53 -28 28 -11 55 -21 60 -23 4 -2 7 1 7 7 0
6 -12 17 -27 25 -36 18 -93 30 -93 19z"/>
<path d="M7745 8401 c-6 -11 9 -23 19 -14 9 9 7 23 -3 23 -6 0 -12 -4 -16 -9z"/>
<path d="M8440 8312 c0 -8 160 -151 215 -192 39 -29 -41 56 -117 125 -78 71
-98 84 -98 67z"/>
<path d="M8240 7492 c0 -39 23 -72 49 -72 14 0 8 59 -10 92 -18 33 -39 21 -39
-20z"/>
<path d="M9050 6071 c0 -5 5 -13 10 -16 6 -3 10 -2 10 4 0 5 -4 13 -10 16 -5
3 -10 2 -10 -4z"/>
<path d="M1630 5540 c0 -5 5 -10 10 -10 6 0 10 5 10 10 0 6 -4 10 -10 10 -5 0
-10 -4 -10 -10z"/>
<path d="M1465 5490 c-10 -11 -15 -20 -11 -20 14 0 46 21 46 30 0 16 -16 11
-35 -10z"/>
<path d="M1454 5356 c-8 -22 3 -33 18 -18 9 9 9 15 0 24 -9 9 -13 7 -18 -6z"/>
<path d="M11280 5193 c-11 -15 -49 -71 -82 -123 -34 -52 -95 -146 -137 -208
-78 -115 -126 -201 -118 -208 7 -7 57 59 160 216 53 80 123 184 156 231 33 48
62 92 63 99 6 25 -20 20 -42 -7z"/>
<path d="M9200 5143 c-58 -44 -140 -126 -140 -141 0 -18 24 -13 108 23 73 31
117 30 64 -1 -124 -71 -148 -94 -97 -94 24 0 25 -2 19 -41 -7 -40 -6 -41 14
-30 28 15 180 130 187 141 8 13 -63 97 -87 103 -16 5 -18 9 -8 26 12 23 6 41
-13 41 -7 0 -28 -12 -47 -27z"/>
<path d="M10880 5084 c0 -8 5 -12 10 -9 6 3 10 10 10 16 0 5 -4 9 -10 9 -5 0
-10 -7 -10 -16z"/>
<path d="M9304 4922 c-69 -38 -124 -82 -124 -98 0 -15 60 -114 69 -114 3 0 20
9 36 21 17 11 61 36 98 55 37 19 71 42 74 50 3 8 -3 25 -14 37 -11 12 -27 34
-36 50 -22 34 -39 34 -103 -1z"/>
<path d="M10657 4853 c-9 -2 -25 -19 -33 -36 -18 -33 -35 -87 -29 -87 6 0 99
100 108 116 8 14 -8 17 -46 7z"/>
<path d="M10483 4815 c-16 -33 -16 -37 0 -52 15 -15 17 -15 27 11 13 35 13 76
0 76 -6 0 -18 -16 -27 -35z"/>
<path d="M10807 4833 c-11 -10 -8 -53 3 -53 6 0 10 14 10 30 0 31 -2 35 -13
23z"/>
<path d="M9390 4762 c-100 -41 -121 -54 -118 -76 2 -13 12 -22 25 -24 20 -3
21 -6 11 -28 -16 -34 3 -53 30 -33 147 108 173 132 170 152 -4 29 -57 33 -118
9z"/>
<path d="M9814 4722 c14 -28 46 -61 46 -48 0 22 -32 76 -45 76 -14 0 -14 -3
-1 -28z"/>
<path d="M9498 4676 c-45 -16 -128 -68 -153 -96 -15 -16 -16 -23 -6 -33 9 -9
18 -8 42 6 45 25 56 21 26 -11 -28 -29 -37 -76 -14 -70 44 11 212 120 206 133
-2 6 -23 10 -46 9 -24 0 -43 1 -43 3 0 1 14 9 30 18 33 17 39 39 14 49 -9 3
-16 6 -17 6 -1 -1 -19 -7 -39 -14z"/>
<path d="M11538 4659 c-21 -11 -38 -26 -38 -34 0 -20 6 -19 56 13 67 42 53 59
-18 21z"/>
<path d="M10868 4563 c-38 -38 -58 -37 -58 3 0 13 -4 24 -9 24 -12 0 -21 -51
-21 -116 0 -29 -4 -56 -10 -59 -5 -3 -10 -17 -10 -30 0 -15 -7 -25 -22 -29
-13 -3 -36 -18 -51 -31 -23 -21 -28 -31 -22 -52 l6 -26 37 37 c28 26 46 36 70
36 29 0 31 2 23 18 -14 26 8 83 65 176 26 42 45 78 43 81 -3 2 -21 -12 -41
-32z"/>
<path d="M11387 4469 c-109 -137 -199 -262 -210 -292 -13 -39 3 -54 34 -34 13
9 75 36 137 61 62 26 134 57 160 70 26 13 65 29 87 36 97 31 355 148 355 162
0 4 -4 8 -9 8 -14 0 -246 -95 -489 -200 -117 -50 -220 -90 -229 -88 -11 2 19
49 111 172 132 175 171 252 53 105z"/>
<path d="M9532 4520 c-78 -28 -117 -53 -117 -76 0 -13 8 -20 28 -22 27 -3 35
-16 17 -27 -12 -8 -13 -45 -1 -45 4 0 39 23 77 51 38 28 81 58 96 67 33 19 42
40 27 58 -16 19 -64 17 -127 -6z"/>
<path d="M11185 4518 c-27 -11 -61 -24 -74 -29 -13 -5 -21 -12 -19 -15 7 -6
139 43 152 56 15 15 -3 11 -59 -12z"/>
<path d="M10978 4493 c-9 -10 -20 -28 -26 -39 -7 -12 -37 -31 -69 -44 -32 -13
-60 -25 -62 -27 -3 -2 6 -14 19 -28 24 -25 24 -25 32 -5 5 13 37 34 88 57 84
38 100 53 50 45 -32 -5 -37 6 -20 39 13 24 8 25 -12 2z"/>
<path d="M10550 4360 c0 -5 5 -10 10 -10 6 0 10 5 10 10 0 6 -4 10 -10 10 -5
0 -10 -4 -10 -10z"/>
<path d="M10790 4279 c0 -5 5 -7 10 -4 6 3 10 8 10 11 0 2 -4 4 -10 4 -5 0
-10 -5 -10 -11z"/>
<path d="M10840 4260 c0 -5 5 -10 10 -10 6 0 10 5 10 10 0 6 -4 10 -10 10 -5
0 -10 -4 -10 -10z"/>
<path d="M11855 4224 c-101 -33 -495 -151 -527 -158 -33 -7 -68 -43 -68 -68 0
-22 23 -23 53 -3 13 8 160 60 327 116 168 56 311 106 317 111 16 13 7 28 -15
27 -9 -1 -48 -12 -87 -25z"/>
<path d="M9881 4214 c-13 -9 -30 -32 -38 -51 -12 -31 -12 -38 2 -59 23 -35 86
-34 114 2 23 30 28 93 9 112 -17 17 -59 15 -87 -4z"/>
<path d="M11176 4076 c-45 -13 -67 -39 -49 -57 9 -9 21 -9 49 2 72 27 72 76 0
55z"/>
<path d="M11202 3978 c-16 -16 -15 -33 2 -47 10 -9 16 -8 25 3 25 29 -1 70
-27 44z"/>
<path d="M1115 2231 c-16 -10 -43 -33 -60 -50 -25 -27 -30 -41 -33 -98 -5 -80
10 -79 34 4 13 45 28 67 72 110 43 40 51 53 37 53 -11 0 -33 -8 -50 -19z"/>
<path d="M1101 1921 c-27 -27 -27 -56 1 -76 21 -14 24 -14 36 2 15 21 12 85
-5 90 -6 2 -21 -5 -32 -16z"/>
<path d="M1023 1814 c-9 -24 20 -109 37 -109 21 0 24 58 5 94 -17 34 -32 39
-42 15z"/>
</g>
</svg>
